<?xml version="1.0" encoding="UTF-8"?>
<svg id="_Слой_1" data-name="Слой 1" xmlns="http://www.w3.org/2000/svg" viewBox="0 0 107.52 112.13">
  <defs>
    <style>
      .cls-1 {
        fill: #e5e7eb;
      }
    </style>
  </defs>
  <path class="cls-1" d="M107.46,44.6c-1.19.17-2.72.33-3.8-.32-.97-.58-1.67-1.63-2.5-2.39-1.66-1.53-3.52-2.86-5.36-4.16-.27-.19-.54-.38-.81-.58.42-.39.84-.77,1.26-1.15.48-.44.98-.88,1.44-1.35.43-.45.78-.78,1.4-.95.58-.15,1.17-.25,1.75-.37.56-.12,1.09-.32,1.65-.46,0,0,0,0-.01,0,.14-.04.27-.15.25-.31,0-.03,0-.05,0-.08-.02-.19-.12-.37-.32-.42-.91-.23-2.03.11-2.94.25-1.04.16-1.86.46-2.7,1.11-.85.66-1.59,1.49-2.35,2.24-.2.2-.4.4-.6.6-.27-.21-.54-.43-.81-.65-.91-.77-1.71-1.64-2.55-2.49-1.4-1.41-3.22-2.86-5.29-2.76,0-.06,0-.12-.01-.18.07-.07.13-.14.18-.21.19-.25.2-.52.43-.73.26-.24.6-.26.9-.42.53-.28,1.17-.8,1.34-1.39.1-.32.1-.29.32-.55.19-.23.38-.47.56-.72.73-.97,1.55-1.88,2.29-2.84.7-.91,1.68-1.96,1.85-3.13.04-.3-.26-.5-.5-.29-.83.71-1.29,1.88-1.9,2.78-.68,1-1.48,2.03-2.45,2.77-.42.32-.82.71-1.25.78-.56.09-1.12.59-1.48,1.01-.2.23-.3.51-.56.69-.14.09-.24.11-.34.11-.02-.73-.23-1.51-.4-2.18-.27-1.09-.64-2.16-.95-3.24-.32-1.1-.55-2.19-.65-3.33-.09-1.01-.21-1.99-.56-2.95-.48-1.35-1.31-2.54-2.18-3.68.46-.86,1-1.5,1.76-2.16.63-.55,1.29-1.1,1.74-1.82.34-.54.76-1.63.03-2.04-.11-.06-.27-.08-.38,0-.33.24-.34.52-.47.89-.14.39-.36.7-.63,1-.6.64-1.32,1.15-1.96,1.76-.36.35-.74.7-1.08,1.07-1.21-1.58-2.33-3.17-3.22-4.96-.53-1.08-1.01-2.19-1.53-3.27-.51-1.06-1.02-2.27-1.9-3.09-.06-.06-.18,0-.15.09.31.92.84,1.76,1.25,2.63.46.99.89,1.98,1.34,2.97.85,1.86,1.84,3.59,3.05,5.24.24.33.47.65.71.97-.1.15-.2.31-.28.48-.47.97-.65,1.99-.83,3.04-.64,3.71-2.1,7.56-4.65,10.39-.39-.13-.85-.03-1.1.42-.63,1.13-.93,2.5-1.35,3.72-.41,1.17-.86,2.32-1.29,3.48-.43,1.15-.82,2.33-1.16,3.51-.17.59-.44,1.35-.56,2.08-.23.05-.46.1-.67.14-1.52.28-3.05.56-4.58.81-1.37.23-2.78.32-3.68,1.51-.78,1.04-1.45,2.06-2.42,2.95-.87.79-1.8,1.5-2.76,2.17-.52-.63-1.15-1.18-1.64-1.61-1.16-1.02-2.43-1.92-3.44-3.11-1.93-2.28-3.72-4.99-6.71-5.95-.23-.07-.45-.05-.63.03-.09-.03-.18-.04-.28-.03-1.47.15-2.94,1.01-4.16,1.82-1.29.86-2.49,1.86-3.71,2.82-1.3,1.02-2.65,1.95-4.05,2.84-.81.52-1.64,1.01-2.45,1.51-.45.27-.96.54-1.38.88-.93-.67-2.05-1.19-3.08-1.7-.73-.36-1.61-.85-2.4-.45,0,0,0,0,0,.01.65.57,1.51.9,2.22,1.42.9.66,1.81,1.42,2.81,1.92.32.16.6.07.76-.13.56-.18,1.1-.52,1.6-.8.81-.45,1.61-.9,2.42-1.34,1.47-.79,2.89-1.59,4.21-2.61,1.18-.9,2.31-1.86,3.53-2.71.61-.42,1.25-.82,1.91-1.16.57-.28,1.16-.46,1.75-.68.05.05.11.08.17.12,2.5,1.34,4.09,3.63,5.87,5.76.93,1.12,1.84,2.19,2.9,3.2.51.48,1.03.95,1.48,1.49-1.74,1.15-3.5,2.27-5.32,3.28-.41.23-.84.45-1.26.66-1.06-.87-2.65-1.32-3.84-1.65-1.87-.52-3.84-.9-5.77-1.1-2.12-.22-4.26.13-6.36.37-1.06.12-2.12.29-3.17.48-1.08.2-2.22.3-3.2.8-.27.14-.4.39-.41.65-1.79,1.13-3.1,3.24-4.07,5.05-1.24,2.28-2.13,4.72-3.4,6.98-1.28,2.28-2.7,4.48-4.08,6.7-1.4,2.26-2.68,4.59-4.12,6.82-.5.04-.99.23-1.45.4-.57.21-1.15.38-1.72.61-.94.37-1.83.85-2.52,1.61-.07.08.03.17.11.11.85-.68,1.9-.98,2.94-1.23.56-.14,1.1-.24,1.68-.26.51-.02,1.07-.02,1.55-.2.24-.09.36-.27.37-.46,2.62-4.48,5.63-8.73,8.19-13.25,1.24-2.19,2.13-4.54,3.28-6.77.55-1.07,1.18-2.11,1.87-3.1.54-.77,1.14-1.5,1.64-2.3.09.09.21.16.35.2.99.26,2.05.14,3.06.12.99-.02,1.99-.05,2.97-.15,1.98-.18,3.99-.5,5.98-.37,1.7.1,3.45.51,5.1.92.6.15,1.21.32,1.8.55-.43.2-.85.39-1.27.6-1.23.52-2.45,1.05-3.64,1.65-3.35,1.69-6.17,4.27-9.07,6.62-1.43,1.16-2.9,2.29-4.22,3.58-1.29,1.27-2.36,2.75-3.28,4.31-1.83,3.1-3.24,6.48-4.19,9.95-.51,1.86-.98,3.81-.75,5.76.07.55.2,1.24.47,1.83.02.32.08.63.17.94.1.33.29.55.53.68.28.49.72.82,1.15,1.18.56.47,1.06.99,1.55,1.52,1.82,1.97,3.76,4.1,6.6,4.36,1.49.14,3.02-.33,4.46-.63,1.43-.3,2.87-.6,4.29-.95,2.79-.68,5.37-1.74,7.67-3.49,2.2-1.68,4.16-3.64,6.32-5.36,2.2-1.74,4.48-3.38,6.4-5.43,3.01-3.2,5.25-7,7.48-10.77,0,.7.05,1.4.12,2.1.23,2.09.84,3.92,1.65,5.84.83,1.96,1.21,4.09,1.67,6.16.1.44.47,2.84,1.13,4.15-.15.14-.33.29-.42.39-.2.23-.4.45-.59.67-.39.45-.76.93-1.17,1.37-.84.92-2.17,1.34-3.25,1.92-2.39,1.28-4.66,2.82-7,4.18-2.32,1.35-4.71,2.53-7.07,3.79-1.18.63-2.37,1.25-3.56,1.85-1.05.54-2.15,1.02-3.13,1.68-.27-.33-1.04-.24-.9.41.32,1.45.17,2.91-.37,4.28-.24.61-.54,1.19-.86,1.76-.29.51-.72.98-.86,1.57,0,0,0,0,0,0,1.04-.4,1.71-1.91,2.05-2.89.23-.67.4-1.37.51-2.07.1-.65.08-1.35.25-2,0,0,0,0,0,0,2.02-.52,3.9-1.71,5.74-2.67,1.91-1,3.76-2.1,5.64-3.17,1.91-1.09,3.82-2.19,5.71-3.31,1.81-1.07,3.63-2.13,5.27-3.44.47-.37.95-.76,1.45-1.1.46-.31.99-.45,1.48-.69.42-.2.83-.52,1.19-.82.2-.17.38-.35.56-.55.08-.08.14-.2.2-.32.11,0,.23-.04.35-.13.78-.55.51-1.79.34-2.59-.23-1.04-.47-2.08-.7-3.12-.45-1.99-.81-4.03-1.58-5.92-.36-.88-.76-1.73-1.01-2.65-.25-.93-.39-1.89-.45-2.85-.12-1.86.16-3.79-.11-5.63.93-1.46,1.91-2.9,3-4.24.47.24.99.35,1.5.51.67.2,1.33.4,1.99.62,1.25.41,2.49.85,3.69,1.38,1.19.52,2.34,1.12,3.43,1.83.54.35,1.1.68,1.64,1.02.1.06.19.13.29.2-.05.36-.12.71-.23,1.06-.4,1.31-1.15,2.49-1.77,3.7-.62,1.19-1.09,2.45-1.5,3.72-.43,1.31-.85,2.62-1.34,3.91-.48,1.27-1.3,2.36-1.8,3.61-.59,1.49-.22,2.66.59,3.96.83,1.33,1.46,2.85,1.71,4.41.04.26.39.16.42-.06.15-1.38.05-2.74-.49-4.03-.27-.65-.7-1.24-.94-1.9-.27-.72-.09-1.44.25-2.1.63-1.25,1.48-2.36,2.05-3.64.58-1.3.97-2.67,1.43-4.01.48-1.39,1.08-2.69,1.76-3.99.65-1.23,1.32-2.51,1.57-3.89.11-.59.16-1.22-.07-1.78-.24-.59-.86-1.18-1.33-1.6-1.03-.91-2.35-1.59-3.56-2.2-1.4-.7-2.87-1.28-4.34-1.8-.77-.27-1.54-.52-2.31-.76-.24-.08-.49-.16-.73-.24.42-.42.84-.84,1.26-1.26.68-.68,1.25-1.42,1.61-2.27.8-.02,1.53-.51,1.96-1.17.45-.69.53-1.51.65-2.31.13-.91.25-1.82.35-2.74.08-.69.14-1.39.19-2.09,1.91-.07,3.89-.75,5.69-1.23,1.09-.3,2.19-.58,3.27-.91,1.04-.32,2.17-.65,3.13-1.18.78-.43,1.45-1.1,2.07-1.73.81-.81,1.62-1.63,2.44-2.44.88-.87,1.76-1.72,2.66-2.56.73.54,1.48,1.06,2.24,1.55,1.95,1.29,3.8,2.63,5.42,4.32.73.77,1.52,1.48,2.6,1.67,1.12.19,2.17-.39,3.14-.86.05-.02.01-.09-.03-.08ZM72.94,35.79c-.13.47-.08.94-.12,1.41-.04.45-.42.65-.71.96-.47.52-.77,1.29-.59,1.95-.04.05-.08.1-.12.16,0,0,0-.02-.01-.03-.24-.48-.53-.9-1-1.16-.24-.13-.5-.21-.77-.25.11-.41.22-.82.34-1.23.37-1.22.81-2.42,1.25-3.62.42-1.16.85-2.32,1.24-3.49.36-1.07.81-2.28.84-3.43.05-.04.1-.09.14-.15,1.27-1.65,2.48-3.29,3.39-5.17.88-1.82,1.55-3.75,1.96-5.73.17-.85.33-1.7.64-2.51.46.72.88,1.47,1.23,2.27.4.93.69,1.87.79,2.88.11,1.09.19,2.15.44,3.22.27,1.14.65,2.24.96,3.36.16.58.31,1.16.43,1.75.08.43.1.87.17,1.3h-.02c-.59-.31-1.4-.19-1.74.44-.44.83-.94,1.62-1.41,2.43-.05.09-.1.18-.15.26-.24.37-.49.74-.73,1.11-.43.4-.91.75-1.29,1.09-.27.24-.54.48-.8.72-1.46-1.16-3.84-.37-4.34,1.46ZM82.77,31.37s-.06.07-.09.11c-.29.32-.58.64-.88.95.33-.35.64-.7.94-1.07,0,0,.02,0,.03,0ZM81.7,32.54c-.46.49-.93.97-1.38,1.46-.07.07-.14.15-.21.22,0,0,0,0,0,0,.52-.57,1.07-1.12,1.6-1.68ZM92.05,37.98c-.8.77-1.59,1.54-2.38,2.31-.41.4-.81.81-1.22,1.22-.32.33-.68.83-1.08,1.06-.39.22-.95.13-1.38.2-.57.09-1.15.16-1.71.27-1.11.21-2.2.55-3.29.85-1.22.34-2.45.69-3.68.99-.77.19-1.54.3-2.31.42,0-.07,0-.14,0-.2.03-.82.23-1.77-.2-2.52.95-.37,1.65-1.17,2.59-1.53.4-.15.85-.08,1.26-.17.5-.1.96-.37,1.24-.8.52-.79.28-1.75-.14-2.53.1-.1.19-.2.29-.3.3-.32.6-.64.91-.95.7-.73,1.4-1.46,2.1-2.19.6-.63,1.25-1.24,1.75-1.95.15-.22.25-.44.31-.66,2.57.19,4.12,2.15,5.87,3.87.62.62,1.29,1.2,1.98,1.75-.3.29-.6.58-.9.87Z"/>
</svg>