<svg xmlns="http://www.w3.org/2000/svg" data-name="Слой 1" viewBox="0 0 190.88 86.43">
    <path d="M.02 54.39c.2-.29.3-.39.64-.52.35-.13.71-.22 1.06-.32a24 24 0 0 1 2.07-.45c1.48-.24 2.96-.34 4.45-.41 2.67-.12 5.36-.18 8.01-.54 2.8-.38 5.49-1.3 8.2-2.05 3.54-.98 7.71-1.82 11.36-.79.9-.56 1.87-1.02 2.86-1.4.24-.1.49-.19.74-.27-1.62-.01-3.24.02-4.86-.19-2.36-.31-4.68-.91-7-1.45-2.46-.57-4.92-1.13-7.38-1.7-1.2-.27-2.4-.55-3.58-.88-.66-.19-1.31-.37-1.96-.6-.51-.18-1.02-.3-1.39-.72-.09-.1-.06-.24.07-.29.62-.26 1.34-.08 1.99 0 .74.09 1.49.22 2.23.36 1.41.27 2.81.59 4.21.89 2.53.56 5.07 1.11 7.6 1.67 2.37.52 4.75 1.09 7.18 1.22 2.33.12 4.69-.16 6.98.32.32.07.65.15.98.26.54-.07 1.07-.14 1.6-.2 1.25-.14 2.44-.23 3.64.19.44.16.89.32 1.32.52.06-.09.14-.17.22-.24-.09-.14-.19-.27-.29-.41-.53-.73-1.07-1.24-1.84-1.7-1.62-.96-3.04-2.17-4.4-3.47-.67-.64-1.34-1.29-2.08-1.84-.33-.24-.69-.44-.99-.71-.35-.33-.53-.8-.7-1.24-.36-.94-.64-1.91-.99-2.85-.16-.44-.32-.88-.46-1.33-.08-.26-.16-.51-.21-.78-.05-.25-.02-.56-.13-.8-.02-.05.06-.08.08-.03.1.23.32.43.47.63.16.22.28.45.4.69.25.47.47.96.7 1.44.43.9.87 1.79 1.32 2.68.21.42.47.61.86.84.42.26.82.55 1.2.86.72.59 1.38 1.25 2.07 1.87.7.63 1.42 1.23 2.18 1.79.74.54 1.55.95 2.29 1.49.71.52 1.23 1.24 1.73 1.95.06.09.12.17.18.26.21-.06.42-.11.6-.15.94-.22 1.83-.22 2.78-.07.93.15 2.29.21 3.25.71.04-.03.08-.06.11-.08.4-.29.87-.5 1.35-.64-.07-.32-.15-.64-.25-.97-.25-.84-.59-1.64-1.04-2.39-.47-.76-1.1-1.31-1.66-1.99-.58-.7-.89-1.55-1.19-2.39-.34-.95-.71-1.9-.91-2.89-.18-.88-.16-1.79-.25-2.68-.1-1.02-.17-2.01-.41-3.01-.03-.13.15-.19.2-.06.35.9.76 1.82.98 2.75.22.95.29 1.94.63 2.87.35.95.79 1.88 1.18 2.81.35.82.76 1.54 1.38 2.18 1.28 1.32 2.22 2.82 2.79 4.58q.15.465.27.93c.88-.03 1.76.06 2.64.18 1.25.17 2.93.53 4.22 1.29 0-.14-.01-.28-.02-.42-.11-1.53-.36-3.05-.8-4.52-.23-.76-.5-1.53-.86-2.23-.31-.6-.92-1.26-.88-1.98.03-.4.28-.67.43-1.02s.17-.76.18-1.13c.03-.78.03-1.56.08-2.34.1-1.53.28-3.14.72-4.61.01-.04.07-.03.07 0 .07 1.81-.04 3.63 0 5.44.02.74.06 1.48-.01 2.22-.04.38-.18.76-.17 1.14 0 .34.21.62.37.9.77 1.37 1.41 2.81 1.86 4.31s.71 3.04.85 4.6c.02.22.04.44.05.67.51-.22 1.04-.39 1.6-.49 1.53-.26 3.18-.07 4.72.02.2.01.41.03.6.05.17-1.39.15-2.82-.03-4.21-.21-1.64-.74-3.18-.56-4.86.17-1.62.69-3.19 1.17-4.74.26-.85.55-1.67.88-2.5.32-.8.49-1.66.92-2.42.1-.17.4-.12.39.09-.05 1-.41 1.95-.56 2.93-.15 1-.44 1.97-.71 2.94-.43 1.57-.98 3.17-.91 4.82.04.89.33 1.73.54 2.59.17.73.3 1.46.38 2.2.13 1.12.13 2.25.04 3.37.87.18 1.73.43 2.59.78.72.29 1.43.6 2.14.91.15.06.31.12.48.19l.06-.06a8.8 8.8 0 0 0 1.36-2.06c.65-1.42.9-3.01 1.18-4.54.3-1.63.53-3.27.74-4.91.1-.83.24-1.65.16-2.48-.07-.76.05-1.38.37-2.08.65-1.43 1.53-2.59 2.6-3.72.04-.04.09 0 .07.05-.42.81-.75 1.68-1.14 2.51-.18.39-.35.78-.52 1.18-.19.43-.47.93-.41 1.41.09.79.21 1.5.16 2.3-.05.83-.14 1.65-.23 2.47-.19 1.65-.42 3.29-.71 4.92-.26 1.45-.59 2.92-1.29 4.23.46-.23.96-.42 1.45-.57 1.41-.42 2.9-.51 4.36-.39 1.32.11 2.63.32 3.94.56.24-1.41.16-2.87.14-4.3-.03-1.7.02-3.35.27-5.04.24-1.64.58-3.28 1.01-4.88.22-.83.45-1.66.74-2.47.27-.76.68-1.41 1.03-2.13.06-.11.22-.04.2.07-.09.51-.1 1.01-.17 1.52-.06.47-.18.94-.29 1.4-.21.93-.42 1.86-.61 2.79-.35 1.7-.76 3.44-.8 5.18-.04 1.68.25 3.34.35 5.02.06 1.03.05 2.1-.1 3.14.36.06.73.12 1.09.2.32.06.64.16.94.28.93-.65 2.1-.99 3.17-1.31.95-.29 1.91-.51 2.88-.54a44 44 0 0 0-.75-4.86c-.38-1.84-.87-3.65-1.42-5.44-.28-.92-.59-1.82-.87-2.74-.14-.46-.3-.91-.4-1.38-.09-.42-.06-.86-.08-1.29 0-.09.1-.11.15-.05.32.4.65.77.87 1.23.19.41.37.84.54 1.26.37.89.69 1.79 1.02 2.7.64 1.79 1.23 3.61 1.69 5.46.43 1.75.74 3.52.98 5.3.51.11 1 .24 1.53.23.59 0 1.18-.09 1.77-.08.66 0 1.31.15 1.98.12q.105 0 .21-.03c-.16-.8-.36-1.59-.56-2.39-.43-1.79-.78-3.59-1.13-5.4s-.6-3.6-.59-5.45c0-.89.03-1.79.13-2.68s.12-1.78.25-2.67c.02-.15.28-.17.31-.01.29 1.76.39 3.55.57 5.32.19 1.83.55 3.62.98 5.4.42 1.78.85 3.56 1.31 5.33.15.57.3 1.15.43 1.72.57-.29 1.16-.52 1.76-.71.02-.59.04-1.18.07-1.77.09-1.7.27-3.4.46-5.09s.37-3.38.58-5.07q.165-1.32.42-2.61c.08-.42.2-.83.32-1.23.05-.17.1-.29.18-.44.09-.17.25-.28.34-.45.01-.03.07-.03.07 0 .03.17.14.33.18.5.04.19.05.28.05.47 0 .45-.01.91-.05 1.36-.07.84-.15 1.67-.24 2.5-.19 1.74-.35 3.47-.43 5.21-.08 1.73-.11 3.46-.18 5.2l-.03 1.05c1.15-.16 2.33-.14 3.49.06.31.05.62.12.92.21.08.02.16.05.24.08.03-.57.06-1.15.11-1.72.16-1.83.37-3.66.55-5.5.17-1.66.19-3.33.37-4.99.09-.82.2-1.66.4-2.46.2-.78.54-1.49.84-2.23.09-.23.49-.08.4.15-.28.79-.36 1.62-.5 2.44q-.195 1.185-.27 2.37c-.11 1.66-.16 3.33-.13 4.99.03 1.79.1 3.59.1 5.38v.15c.79-.53 1.64-.97 2.52-1.32.02-.24.05-.49.07-.73.19-1.64.57-3.26 1-4.85.43-1.6.94-3.18 1.63-4.69.32-.69.68-1.35 1.16-1.94.25-.31.51-.59.83-.82.32-.24.79-.28 1.07-.53.06-.06.16.03.1.09-.24.24-.34.74-.54 1.03-.19.29-.4.57-.58.87-.36.61-.66 1.27-.9 1.93-.53 1.44-.95 2.93-1.3 4.42-.35 1.48-.66 2.99-.85 4.51 0 .06-.01.12-.02.18.74-.18 1.5-.29 2.26-.34.21-.01.42-.02.63-.01.02-.43.06-.85.11-1.27.19-1.59.74-3.01 1.46-4.43.65-1.29 1.35-2.57 2.17-3.76.81-1.18 1.88-2.09 2.93-3.03.12-.11.31.06.18.17-1.05.95-1.68 2.24-2.34 3.47-.63 1.17-1.14 2.4-1.64 3.64-.56 1.36-1.03 2.74-1.17 4.22-.04.39-.05.78-.06 1.17.11-.1.25-.18.42-.21.19-.03.34-.04.49-.14.2-.14.35-.37.5-.54.37-.43.78-.8 1.23-1.13q.36-.27.75-.51c.07-.49.15-.98.27-1.47.38-1.58 1.09-3.07 1.88-4.48.81-1.44 1.63-2.98 2.78-4.17.55-.56 1.15-1.08 1.75-1.57.35-.28.7-.57 1.05-.85.36-.28.76-.47 1.11-.76.06-.05.13.05.09.1-.3.35-.51.76-.81 1.12-.25.3-.51.6-.76.9-.53.61-1.1 1.19-1.59 1.83-.93 1.21-1.65 2.61-2.38 3.95-.74 1.35-1.39 2.75-1.75 4.25-.02.1-.04.2-.06.29.23-.1.45-.2.68-.3 1.04-.42 2.19-.65 3.31-.63.58-1.22 1.49-2.35 2.28-3.34.72-.89 1.48-1.77 2.36-2.5.41-.35.84-.7 1.33-.95s1.04-.33 1.54-.56c.09-.04.16.11.07.16-.5.27-.82.74-1.23 1.13-.38.36-.77.71-1.12 1.09-.69.74-1.32 1.52-1.92 2.34-.61.83-1.25 1.65-1.77 2.55-.04.07-.08.14-.11.21.11.03.23.06.33.09.07-.11.15-.21.22-.32.34-.51.68-1.02 1.06-1.49.82-1 1.9-1.68 3.1-2.16.9-.36 1.93-.68 2.91-.53 1.03-1.93 1.83-3.97 2.56-6.06.45-1.29.91-2.6 1.15-3.95.22-1.29.18-2.63-.02-3.92-.42-2.79-1.45-5.52-3.1-7.81-1.63-2.26-3.54-4.35-5.45-6.38-1.94-2.07-4.09-3.97-5.91-6.14-.06-.07 0-.2.1-.14 2.77 1.74 5.12 4.23 7.36 6.59 1.97 2.07 3.99 4.22 5.56 6.62 1.58 2.42 2.52 5.36 2.8 8.23.28 2.88-.63 5.55-1.49 8.25-.57 1.81-1.23 3.62-2.12 5.3.64.41 1.24.96 1.81 1.4.94.72 1.85 1.37 2.41 2.45.38.73.69 1.5.89 2.3 1.04-.29 2.11-.52 3.18-.68 4.78-.71 9.79.02 14.13 2.17 2.62 1.3 5.07 3.08 7.38 4.86 1.11.86 2.26 1.65 3.44 2.41 1.12.73 2.33 1.26 3.66 1.47.04 0 .03.07 0 .07-2.92-.24-5.25-2.01-7.66-3.49-2.42-1.49-4.67-3.26-7.23-4.52a22.6 22.6 0 0 0-6.92-2.07c-2.4-.32-4.87-.27-7.26.16-.85.16-1.69.36-2.51.61 0 .07.02.13.02.2.22 2.11-.72 4.3-2.69 5.23-1.07.51-2.21.65-3.38.51-.29.1-.58.18-.87.25.45 0 .9-.01 1.35-.05 1.09-.08 2.17-.25 3.23-.53 1.02-.27 2.02-.58 3.06-.72.11-.01.15.13.09.2-1.46 1.76-4.16 2.37-6.34 2.58-1.19.11-2.39.08-3.58-.06-.16-.02-.33-.04-.49-.07-.11.3-.18.62-.32.92-.16.35-.4.67-.64.98-.46.58-1 1.08-1.6 1.5.27.22.56.42.85.61 1.36.86 2.9 1.5 4.4 2.07 1.53.58 3.08 1.06 4.64 1.54.78.24 1.56.45 2.34.68.36.1.72.22 1.07.34.42.15.77.48 1.21.58.1.02.06.16-.04.15-.45-.06-.9.12-1.36.07-.43-.04-.87-.1-1.3-.18-.83-.15-1.65-.33-2.47-.54-1.63-.4-3.24-.94-4.81-1.51-1.6-.58-3.27-1.09-4.72-2-.46-.29-.9-.61-1.33-.95-.27.12-.54.23-.81.32-.4.14-.8.25-1.21.32-.2.04-.41.07-.62.1-.11.01-.22.03-.33.04-.01 0-.04 0-.06.01-.05.04-.12.09-.14.1-.1.07-.19.15-.29.23-.15.12-.31.24-.47.35-.27.2-.55.38-.84.56.46.6.97 1.16 1.51 1.68 1.2 1.17 2.51 2.23 3.91 3.14 1.44.94 2.98 1.75 4.56 2.44.83.36 1.66.7 2.49 1.05.41.17.82.37 1.21.58.29.15.55.27.66.6.02.06 0 .12-.06.15-.34.23-.72.1-1.1.03-.44-.08-.88-.19-1.31-.33-.92-.28-1.83-.59-2.72-.95-1.66-.66-3.24-1.47-4.74-2.45-1.46-.96-2.84-2.04-4.09-3.25-.64-.61-1.24-1.27-1.76-1.98-.47.19-.96.34-1.46.42-.56.09-1.23.2-1.86.17-.09.13-.19.25-.29.38.58.48 1.09 1.07 1.47 1.73.82 1.43 1.08 3.05 1.75 4.53.66 1.47 1.73 2.65 2.97 3.66 1.28 1.04 2.58 2.09 3.93 3.05.1.07-.02.22-.12.17-1.54-.68-3.08-1.25-4.46-2.24-1.29-.93-2.51-2.03-3.46-3.31-.97-1.31-1.39-2.84-2.13-4.26-.34-.65-.76-1.23-1.32-1.71-.08-.07-.15-.13-.23-.19-.97.52-2.08.65-3.21.71.26.6.48 1.21.66 1.84.4 1.41.62 2.85.86 4.29.25 1.52.56 3.04 1.12 4.48.52 1.35 1.21 2.69 2.01 3.9.1.15-.11.31-.24.2-.55-.51-1.16-.96-1.69-1.49-.52-.52-.98-1.17-1.34-1.81-.73-1.33-1.11-2.81-1.43-4.28-.31-1.46-.54-2.95-.95-4.39-.19-.68-.41-1.37-.71-2.02-.09-.19-.19-.37-.3-.55-.42.02-.82 0-1.18-.11-.45.4-.95.73-1.5 1.04-.62.36-1.25.7-1.91 1 .19.42.34.84.47 1.21.5 1.45.85 2.95 1.22 4.43.17.68.28 1.42.74 1.98.47.56 1.11.99 1.63 1.51 1.06 1.07 1.8 2.23 2.48 3.56.06.13-.1.3-.21.17-.92-1.1-2.06-2.12-3.19-3-.56-.44-1.19-.81-1.69-1.32-.5-.52-.79-1.14-1-1.83-.47-1.51-.95-3.02-1.52-4.49-.21-.55-.45-1.1-.74-1.61-.82.18-1.68.19-2.51 0-.36-.09-.88-.27-1.29-.54.26.44.46.95.66 1.37.31.68.64 1.35.8 2.08.16.74.22 1.5.31 2.24.09.79.21 1.58.27 2.37.12 1.67.42 3.25.89 4.86.23.77.47 1.53.71 2.3.23.78.27 1.59.56 2.34.02.05-.06.08-.08.03-.3-.8-.83-1.47-1.16-2.26-.3-.71-.56-1.43-.8-2.17-.5-1.51-.91-3.06-1.33-4.59-.41-1.48-.51-3.05-1.01-4.51-.24-.69-.58-1.33-.9-1.98-.16-.32-.34-.66-.49-1.02-.44.27-.91.5-1.39.7-1.39.58-2.93.81-4.43.89-.73.04-1.46.04-2.19.02.08.24.16.49.25.73.3.83.59 1.66.88 2.49.58 1.73 1.25 3.43 1.86 5.15.59 1.65 1.16 3.24 1.31 5 .07.83.1 1.66.12 2.5.01.58.2 1.78-.28 2.21q-.075.06-.15 0c-.52-.39-.43-1.61-.46-2.2-.05-.85-.06-1.72-.21-2.55-.16-.89-.51-1.73-.86-2.56-.33-.78-.65-1.58-.96-2.36-.69-1.7-1.33-3.42-2.04-5.11-.44-1.05-1.03-2.21-1.29-3.39-.16 0-.32-.02-.48-.02-.73-.04-1.46-.07-2.18-.11-.21-.01-.47-.02-.72-.05-1.12 1.07-2.63 1.52-4.15 1.74-.09.01-.17.02-.26.04.31.77.62 1.53.94 2.3.68 1.67 1.27 3.38 1.6 5.16.15.84.23 1.65.15 2.5-.09.87-.26 1.74-.42 2.6-.16.87-.34 1.73-.54 2.59-.22.93-.52 1.82-.79 2.74-.02.09-.17.08-.16-.02.1-1.76.21-3.5.43-5.25.21-1.66.49-3.31 0-4.95-.51-1.7-1.29-3.31-1.96-4.96l-.99-2.43c-.01-.03-.03-.07-.04-.1-.92.05-1.84 0-2.74-.19-.77-.17-1.51-.42-2.28-.58-.76-.17-1.54-.25-2.3-.4-.78-.16-1.57-.36-2.32-.65-.31-.12-.61-.23-.9-.37l-.13.1c.51 1.26.88 2.59 1.28 3.85.63 1.97 1.18 3.98 1.65 6 .48 2.02.95 4.04 1.37 6.08.21 1 .4 2 .59 3.01.09.51.17 1.02.22 1.54.05.55 0 1.07.02 1.61 0 .16-.22.18-.26.04-.18-.52-.44-.98-.61-1.51-.17-.52-.31-1.04-.44-1.56-.25-.99-.51-1.97-.78-2.95-.54-1.97-1.1-3.92-1.74-5.86s-1.28-3.87-1.92-5.81c-.39-1.17-.85-2.35-1.22-3.54-.47.15-.94.26-1.35.33-1.63.29-3.26.24-4.9.07h-.02c-.07.32-.14.64-.19.95-.16.89-.29 1.79-.41 2.69-.23 1.74-.45 3.48-.68 5.21-.24 1.78-.54 3.53-.57 5.33-.02.91.02 1.82.03 2.73.01.9-.08 1.82 0 2.72.01.13-.2.16-.23.04-.11-.47-.31-.91-.43-1.38-.11-.42-.17-.86-.24-1.29-.14-.88-.19-1.79-.23-2.68-.08-1.84-.08-3.69.04-5.53.13-1.86.28-3.72.51-5.57.11-.9.23-1.8.38-2.7.04-.24.08-.49.12-.74-.97-.12-1.93-.27-2.89-.45-1.53-.28-3.04-.63-4.53-1.07-.04.08-.08.17-.11.25-.2.43-.39.86-.59 1.28-.38.83-.76 1.65-1.13 2.48-.73 1.63-1.39 3.3-1.9 5.01s-.85 3.47-1.09 5.24c-.12.9-.2 1.81-.25 2.71-.05.88-.02 1.76-.08 2.64 0 .11-.18.16-.21.03-.48-1.86-.45-3.95-.34-5.86.11-1.95.46-3.9 1-5.78.55-1.91 1.37-3.75 2.19-5.56.43-.95.87-1.91 1.31-2.86-.39-.14-.78-.3-1.15-.48q-.345-.165-.66-.36c-1 .45-2.3.53-3.21.58-.43.02-.85.02-1.28 0-.29.38-.59.75-.87 1.13-1.87 2.46-3.66 4.98-5.27 7.63-.8 1.31-1.52 2.69-2.11 4.11-.61 1.46-.95 3-1.55 4.45-.09.21-.42.11-.42-.1 0-1.76.7-3.56 1.3-5.2 1.09-2.96 2.52-5.76 4.24-8.4.85-1.3 1.75-2.57 2.68-3.81-.55-.08-1.1-.18-1.64-.29-1.54-.31-3.08-.67-4.55-1.24-.01 0-.03-.01-.04-.02-.37.6-.73 1.21-1.08 1.82-.8 1.39-1.55 2.89-2.67 4.06-.56.59-1.24 1.08-1.88 1.58-.65.5-1.2 1.09-1.73 1.72a40 40 0 0 0-2.99 4.06c-.44.7-.87 1.41-1.26 2.13-.21.38-.42.75-.64 1.11-.2.33-.4.53-.67.8-.03.03-.09.01-.09-.04.01-.22-.02-.44.04-.65.04-.17.12-.34.19-.5.18-.46.4-.89.65-1.32.46-.8.95-1.57 1.47-2.33.92-1.36 1.8-2.76 2.74-4.11.49-.71 1.07-1.3 1.69-1.9.6-.58 1.04-1.21 1.51-1.89.92-1.34 1.65-2.81 2.48-4.21.21-.36.43-.71.65-1.06-.67-.37-1.28-.83-1.78-1.41-1.3.46-2.76.53-4.2.39-.63.79-1.32 1.53-2.11 2.18-1.73 1.42-3.98 2.11-6.01 2.99-.54.23-.82.41-1.14.9-.28.43-.57.85-.89 1.25-.72.92-1.51 1.79-2.27 2.68-1.53 1.79-3.03 3.6-4.59 5.37-.79.9-1.58 1.78-2.38 2.68-.41.46-.8.93-1.24 1.36-.41.41-.87.77-1.31 1.16-.2.18-.57-.03-.41-.29.34-.55.66-1.11 1.04-1.64.4-.55.85-1.07 1.28-1.6.81-1.01 1.62-2.03 2.45-3.03 1.51-1.81 3.03-3.61 4.54-5.41.74-.89 1.51-1.76 2.21-2.69.32-.42.57-.92.94-1.29.33-.33.75-.5 1.17-.68 2-.88 4.13-1.67 5.77-3.16q.555-.51 1.05-1.08-.45-.09-.87-.21c-1.08-.28-2.16-.68-3.16-1.18-.47-.24-.94-.5-1.36-.82-.45.26-.92.51-1.37.74-1.24.62-2.53 1.13-3.84 1.57-4.82 1.6-9.92 2.4-15 2.34-1.26-.01-2.51-.08-3.76-.19-.69-.06-1.35-.16-2.04-.09-.58.06-1.15.2-1.72.31-1.35.26-2.69.52-4.04.77-.65.12-1.31.25-1.97.32-.55.06-1.13.1-1.63-.15-.02 0-.02-.03 0-.05.4-.48 1.09-.69 1.68-.86.72-.2 1.45-.38 2.19-.55 1.46-.33 2.92-.68 4.38-1 1.22-.26 2.38-.23 3.62-.15 1.25.07 2.51.1 3.76.07 2.46-.05 4.94-.28 7.37-.7 2.45-.42 4.89-1.03 7.24-1.86.8-.28 1.6-.59 2.37-.95-.02 0-.04 0-.07-.01-1.08-.23-2.19-.63-2.85-1.58-.57-.83-.7-1.93-.37-2.88.17-.48.45-.9.8-1.26q-1.485-.18-3-.06c-2.51.18-4.93.9-7.33 1.59-2.69.78-5.38 1.48-8.18 1.73-2.54.23-5.11.14-7.66.18-1.3.02-2.6.06-3.9.13-.67.04-1.35.08-2.02.15-.3.03-.6.09-.91.1-.27.01-.38-.04-.63-.16-.07-.04-.11-.14-.06-.21Z"
          style="fill:#e5e7eb"/>
</svg>
