<svg xmlns="http://www.w3.org/2000/svg" baseProfile="tiny-ps" viewBox="0 0 256 256">
    <title>Maison Dellos</title>
    <path fill="#1d1d1b" d="M0 0h256v256H0z" class="cls-1"/>
    <path fill="#f6f6f6"
          d="M95.27 198.17a2.9 2.9 0 0 0-.45 2.24c1.65.44 1.78-2.2.45-2.24M97.51 197.73c-.43 1.62 2.5 1 2.25 0-.86-.85-1.13-.05-2.25 0M143.7 48.41c-.53-.53-1.59-.51-2.69-.45-.5 1.75 2.67 1.79 2.69.45M149.53 48.86c-.61-.62-3.14-.87-3.14.44 1.18-1 2.29.7 3.14-.44M139.66 49.3c-4.11.24-6.78 1.89-8.52 4.48h2.69c.08-3.35 4.06-2.78 5.83-4.48M131.14 54.24c-1.73.07-3.22 2.72-2.24 4a25 25 0 0 0 2.24-4M129.35 65c0-1.06.77-1.32.44-2.7-1.21.28-3.55-.56-4 .45.96.96.94 2.93 3.56 2.25M131.59 66.78c.21-1.39-.39-2-1.8-1.78-.2 1.4.39 2 1.8 1.78M211.86 65c-3.33 5.19-9.5 9.93-10.77 15.69a95 95 0 0 0 11.66-14.8c-.05-.55-.13-1.06-.89-.89M136.53 69c.25-1.92-1.21-2.09-2.25-2.7a2.87 2.87 0 0 0 2.25 2.7M197.51 67.68c-4.21 2.09-9 3.54-13 5.84a26.76 26.76 0 0 0 13-5.84M128.9 69.48c.08 1.42.31 2.68 1.79 2.7a1.69 1.69 0 0 0-1.79-2.7M148.18 74c-.53-.53-1.58-.51-2.69-.45-.21 1.45 2.58 1.85 2.69.45M132.49 78.9v-2.24c-.94-.43-3.29-1.77-4-.9 1.29 1.07 1.61 3.13 4 3.14M134.73 79.79c-.7 2-.5 4.88-.9 7.17 1.32.94 4.19 2.19 6.27.91 1.5-4.25-.69-8.52-5.37-8.08M185.4 80.24c-1.37-1.23-1.81 1.18-4 .45-.4 3.21 4.27 1.52 4-.45M189.89 87.87c-.51 1.73-2.2 2.29-2.7 4 2.26-.28 3.25-1.84 4-3.59a2.1 2.1 0 0 1-1.3-.41M172 91.9c-.39 2.15-2 3.13-1.8 5.83 1.36-.85 2.8-4.04 1.8-5.83M180 95.49a8 8 0 0 0 3.59-1.8c-1.82-.03-3.51.06-3.59 1.8M242.35 97.28c.25 1.46-.31 2.09-.45 3.14h2.69c-.08-.52.1-.79.44-.9v-2.69c-1.37-.31-1.63.46-2.68.45M231.13 103.11c.4-1.1 1.05-1.94.9-3.59-.94-.76-3.35.81-3.58 2.25-.1.84.5 1 .45 1.79 1.1.19.97-.82 2.23-.45M124.41 103.11c-1.38-2.46-10.1-1.74-11.65 0 3.03.21 7.24-1.11 11.65 0M115.89 104.9c-.06.81.45 1 1.35.9 5.67-.48 4.62-1.13-1.35-.9M70.16 109.39c-.83-1-4.1-1.3-5.38-.45-.78.49 5.68 1.88 5.38.45M99.3 112.53c0 1.75 2.69 1.59 2.25-.45a2.9 2.9 0 0 0-2.25.45M133.83 112.53c.06 1.43 1 2 2.7 1.79-.02-1.48-1.28-1.71-2.7-1.79M94.82 116.11c1.35-.17 5.33-1.89 2.69-3.13-.36 1.59-3.19.69-2.69 3.13M230.24 113.42c3.27 3.17 10.11 5 11.21 10.31 1.49 7.15-3.31 11.27-8.52 13.9 15.07-.93 10.64-26.24-2.69-24.21"
          class="cls-2"/>
    <path fill="#f6f6f6"
          d="M235.17 117.91c-1.89-1.11-4.17-4.19-7.17-2.7 2.84.16 5.24 3.13 7.17 2.7M185.85 123.73c15.69-1.07-7.07-12.53 0 0M203.33 125.53c4.17-1.36 5.92-5.15 9.42-7.17-4.64.89-8.94 2.11-9.42 7.17M32.94 121.49c2.48.41 1.77-1.87 0-1.79ZM221.71 120.6c-7 1.55-13.74 5.73-18.38 9.87-1.2 1.07-4.34 2.61-3.14 4.48A109 109 0 0 1 222.61 121c-.09-.3-.37-.47-.9-.4"
          class="cls-2"/>
    <path fill="#f6f6f6"
          d="M191.68 123.29a8.1 8.1 0 0 0-2.25 2.69c1.21-.17 3.23-1.82 2.25-2.69M13.21 125.08c-1.35.29-1.25 2-2.24 2.69v4c.91.58.82 2.17 2.69 1.79 2.05-1.04 2.08-7.93-.45-8.48M187.19 141.67a3 3 0 0 0 2.24-2.69c-2.05-.4-1.81 1.47-2.24 2.69M198 140.33c-6.61-.48-9.24 3-11.21 7.17 3.45-2.63 7.9-4.31 11.21-7.17M30.25 145.26c1.11 1 3.64-1.6 2.24-3.14-1.69.11-1.74 1.88-2.24 3.14M180.46 152.43c1.15-3.49 5.72-5.94 5.39-9.41-1.24 3.4-7.26 4.4-5.39 9.41M109.17 145.26h-3.59v3.59a5.77 5.77 0 0 0 3.59-3.59M97.06 148.4c-2.37 2.26-5.88 3.38-8.08 5.83 2.09-.52 8.82-2.5 8.08-5.83M179.12 155.12c-3.9 3.42-5.58 11.46-5.82 17 3-4.65 3.71-11.51 6.72-16.14-.02-.51-.14-.98-.9-.86M88.54 162.3c.18-1.8-.84-2 .44-2.69-2.41-.33-3.89-.29-5.82-1.79-.16 3.47 3.69 2.88 5.38 4.48M27.56 160.06a6.73 6.73 0 0 0 4.93 4c-.16-2.8-2.84-3.06-4.93-4M71.5 166.78c.37-1.72.37-3.81 2.7-3.58 1.66.27-.46 2.15 1.34 2.69 2.8.1 3-2.33 3.14-4.93-9.11 2.4-19.93 7-32.73 7.17 9.71 2.55 16.97-2.8 25.55-1.35M99.76 164.54c-3.09-.13-4.73-3.83-8.53-1.79 1.23 1.92 5.9 2.77 8.53 1.79M32.94 164.54c.71.19.39 1.42 1.79.9v-1.34c-.67.07-1.65-.17-1.79.44M43.71 167.24a51 51 0 0 0-8.53-2.24c1.06 2.22 5.82 3.19 8.53 2.24M143.7 170.82c1.23-.26 2.51-.47 2.24-2.24-1.6-.11-2.35.64-2.24 2.24M142.8 170.82a11.4 11.4 0 0 0-4.93 2.24 4.67 4.67 0 0 0 4.93-2.24M107.37 191.9c3.87-.73 4.74 1.55 6.73 2.69 1.51-.29 1.44-2.15 1.35-4-2.32-.4-6.98-.87-8.08 1.31M93.47 199.07c-.14 4.56 8.14 3.31 11.66 4.93 1.79.82-1.33 1.08.9 1.35 1.54.18 4 .17 4.48-.91a3.3 3.3 0 0 1-1.34-.88c2.44.19 4.3-.19 4.93-1.8-1.83.49-3.73.72-4.93-.45-1 .14-1 1.39-1.8 1.8-2.27-.57-4.17-1.51-4-4.49 2.52-2.11 8.81-.46 11.66-2.24-4.95-2.5-21.39-2.59-21.56 2.69m1.35 1.34a2.9 2.9 0 0 1 .45-2.24c1.33.04 1.2 2.68-.45 2.24m2.69-2.68c1.12 0 1.39-.85 2.25 0 .24.95-2.68 1.62-2.25 0M141.45 200.41c3 .15 6.11 2.55 9.42.9-.75-2.87-7.87-4.08-9.42-.9M115.47 109.46l.12-.08h-.14a.2.2 0 0 0 .02.08M24 131.36l-.14-1.65a3.5 3.5 0 0 0 .14 1.65"
          class="cls-2"/>
    <path fill="#f6f6f6"
          d="M79.12 160.06c19.18-13.11 36.34-30.62 51.12-46.64-5.16 7.4-10.82 15.16-17.48 21.53-4.25 4.05-10.48 6.69-12.56 12.11 4.4-4.87 10.55-8 14.35-13.46 8.35-4.36 10.71-14.7 18.39-19.73-.94-4.53 4.09-5.74 5.38-9.41 2.32 2.45 6.74 2.81 7.17 7.17-3.78-.56-4.72-3.94-8.07-4.93a4.47 4.47 0 0 1-1.35 2.69c1.85 2.63 3.94 5 5.38 8.07-.9-.65-3.25-2.88-4-.89 3.22 1.11 3.79 4.87 3.59 9.41-15.08 6.11-30.77 15.18-35 33.63 2 .67 1.38-1.31 3.14-.9a4.18 4.18 0 0 1-.45 3.59c-1.1.06-2.16.06-2.69-.45.29 1.78-.25 2.74-1.79 2.69 0 1.73 3.14 1.91 1.79 3.59h2.25c2 4.76 7.49 7.42 13.9 8.07 5 .51 11.88.41 13.89-3.14-5.19 2.05-10.67-2.39-13.89-.9-2.43-3.65 0-9.5-3.59-12.1-2.1.14-1.52 3-3.14 3.59h-1.36c0-16.55 10.91-25.79 22.43-32.29.67-.82.46-2.51 1.34-3.14a6.3 6.3 0 0 0 1.79 2.69c-.51.53-.51 1.59-.45 2.69-9.05 6.06-20.18 12.4-21.07 25.11 4.41-1.09 4.17-6.71 6.27-9.86 1.87-2.78 4.69-3.9 7.18-5.83.81-1.29 1.19-3 2.24-4 1.77 3.89-.57 5.43-1.34 9 .3.89 2.67-.28 2.24 1.34-.28 2.57-3.21 2.48-2.24 6.28-2 .9-4.29 1.4-5.83 2.7-.47 1.67.94 1.44 1.34 2.23-1.32.66-5 .72-4 2.25 9.59-1.76 19.05-7.54 23.76-15.69-1.94.28-2.15 2.32-4 2.68 1-2.13 3.4-2.88 3.58-5.83-2.16.39-3.22 1.87-5.38 2.25.58-4 3-6.39 1.35-10.32 5.26-2.36 11.23.57 10.76 6.73a18.9 18.9 0 0 1 4 3.14c-.79.25-1.86.22-2.24.9 1.15.64 3.41.18 2.7 2.68-.09.67-1.09.41-1.8.45-.23 8.6-5.69 11.95-9.42 17 6-.92 5.27-8.48 13.46-7.17-3.07-4.82.08-10.38 3.13-13-6.33-1.88-5.35-11.1-10.75-13.91 1.87-1.55 5.25-1.62 8.07-2.23.11-1.47-1.74-.95-1.8-2.25 1.52-.57 1.35-2.84 2.24-4 1.52.65 4.46.77 4.48-1.35-.53-.65-2-.43-1.34-2.24-1.11-.59-2.17 1-2.24 0 .79-4.31 4.05-8.5 3.58-12.55-1.59 1.7-2.3 4.26-4 5.82-1.42-.52-.77-3.11-2.24-3.58-.67.12-1.34 2.47-1.8 1.34.94-1.16.28-3.9 1.8-4.48-.12 1.46.54 2.16 1.79 2.24 2.21-1.39 2.28-4.9 2.24-8.52 1-.21 3.37-1.38 4-.45.41 2.07-2.8 4.75-.45 5.83 1.24-2.22 1.61-5.27 2.24-8.07h-3.59c3.58-3.6 2.69-11.67 8.08-13.45-.26 1.26-1.8 3.55-.45 4.93.78-3.86 4.77-4.5 6.72-7.18-.34-1.68-2.77 1.18-2.24-.9 1.74-.49 1.93-2.55 3.14-3.58 7.41-.52 11.7-4.14 17.94-5.82 3.72-5.44 14.5-8.48 12.56-16.6-4 6.74-7.81 13.72-17.05 15.25-4 3.51-10.89 4-16.59 5.83.73-1.82 3.32-1.77 4.49-3.14a3.2 3.2 0 0 1-1.35-.9c2.67-3.47 5.43-6.83 9.42-9 3.1-4.2 9-13.84 15.24-13 9.76 1.3-3.92 13.59-4.93 15.24 4-3.11 12.4-9.07 7.18-15.69-1.66-.29-4.46.58-5.38-.45 3.27-3.73 10.9-1.47 10.31 4a10 10 0 0 0-.9-5.37c-1.37-.58-3.25-.64-4.48-1.34h-4c-6 3.11-14.84 3.39-19.28 8.06.82-6.06 9.18-4.58 12.56-8.06h-1.79C176 51 165.74 63.87 153.56 74.87a4 4 0 0 0-3.14.89 1.94 1.94 0 0 1 1.79.9c-1.14 0-.64 1.74-1.79 1.79-7.57-.35-12.51-5.72-17.93-6.73a29 29 0 0 0 16.14 8.07c-4.76 6.6-10 12.7-14.8 19.29-5.13.41-12.21-3.1-15.69 0 4.84.53 10.44.32 13.45 2.69-.91 2-4.45.38-6.28.44-1 1.73 0 2.64 1.35 3.14-1.07.27-3.26-.56-3.59.45 1.61.18 3.47.11 4 1.35-2.16 3.59-8 .12-11.51 2.23 3.19-.1 6.14.06 7.93 1.36-10.79 13.39-22.61 30-37.67 39a12.53 12.53 0 0 1-7.14 2.26c-.7-1.75-1-7.14 1.79-5.38.35-2.3-3.18-.71-3.14-2.7 0-1.39 1.35-1.33 2.69-1.34.46-1.93.66-4.13 2.69-4.48-.4.79-1.08 1.3-1.34 2.24a54.3 54.3 0 0 1 17.93-4.94c-3.8-3.69-9.77 1.39-14.35 1.34 3.11-4.36 6.1-8.86 5.38-17 2.27-1.32 3.42-3.76 4.49-6.28 1.66-1.17 5.13-.54 4.94-3.58-3.28 0-5.33 3.64-7.63 3.14 6.11-3.15 11-7.53 19.28-8.52v-2.25c-10.22-.65-17.61 5.39-24.66 9.42-3-3.64-7.19-5.92-12.11-7.62-2.68-.93-6.59-3.61-8.52-.9 3.06-.52 3.3 1.79 5.38 2.24-3.57.87-10.33-2.87-10.76 1.8 4.47-.27 12.4 2.09 15.25-.9 5.09 1.25 6.61 3.71 9.42 6.73-4.12 2.3-6.28 6.58-9 10.31-2.13-2.07-8.6-7.59-10.77-2.69h4.49c.62.58.44 2 .45 3.13 1.55.36 1.89-.49 2.68-.89 2.87 5.67.19 16.33-2.68 20.62-4.32-.27-8 .1-10.32 1.8a5.3 5.3 0 0 0-.9-5.83c-4-.56-5.61 1.26-6.73 3.59a14.65 14.65 0 0 0-8.06-1.35c-3.14-8.91 4.47-10.66 8.06-13.9 1.91-1.71 2.32-4.32 4.5-5.83s4.39-.5 5.83-3.14c-13-2.6-21.66 7.44-22.87 18.39-1.75 15.72 9.64 21.6 23.31 23.77-18 1.78-35.25-.46-38.56-14.8a4.16 4.16 0 0 0 1.38-3.2c.38-1.43-.71-1.39-.9-2.24 3-6 .5-15.25 6.28-18.84-3.18.71-4.66 3.12-6.28 5.38.78-3.67 2.75-8.18 5.83-10.75 1.73-1.46 3.89-1.4 6.28-2.25 2.79-1 7-6.21 8.52-2.24-3.12 2.94-9.95 4.41-11.22 7.64 4.82.35 9.06-8.46 14.81-4.49 1.2-2.38 3.26-3.9 5.37-5.37-1.15-.49-2.13 1.36-2.69 0-.29-2.39.26-3.93 1.8-4.49a7.2 7.2 0 0 0 4 .9c1-2.3-2.28-.41-1.79-2.24 1.51-.13 3.06-.22 4-.9C48.85 100 36 105.64 30.7 113c.12.92 2 .1 1.79 1.34-2.7 1.63-3.77 4.9-6.72 6.28.14-1.09 2.76-2 1.79-2.69a7.8 7.8 0 0 1-1.79 1.34 7.44 7.44 0 0 0 2.23-5.85c-4.68 3.25-9.57 6.28-9.87 13.9-2.75 2.34-1.75 9.26-1.34 13.46.76.42 1 1.41 1.34 2.24 3.21 16 19.39 23 36.77 21.08 10.1-1.1 18.33-6.95 26.47-6.73-.25 1.39-2.12 1.17-2.25 2.69m39 10.31c-1.56-1.28-3.11-2.57-3.14-5.38 2.31.56 2.63 3.07 3.16 5.38Zm-6.73-6.27c-1-.34-.17-2.52-.45-3.6.77.66 1.33 2.68.47 3.6Zm37.22-33.19c-.62-.27-.07-1.72-.9-1.79 0-1.23 2.12-1.07 2.69-.45.14 1.47-.51 2.16-1.77 2.24Zm4-1.34v-1.8c1.11-.82 4.17.3 3.13-2.69 1.15 1.86 2.62-.27 3.59.45a4.77 4.77 0 0 1-6.66 4.04Zm7.17-6.28c-1.85.76-4.05-1.28-5.38.9-.55-2.5 2.55-1.34 2.7-3.15.9.79 2.81.54 2.74 2.25Zm3.22-21.08c-.52-.82-2.93.24-2.24-1.79H163Zm.44-3.13c-.8-.77.15-1.77 1.35-1.8.11 1.17-.19 1.93-1.37 1.8Zm0-18.84c.77-.54 3.44-.1 4.49.45.07 1.55-5.12 1.44-4.51-.45Zm4.94 11.66c-1.6-.88-.06-2.75.45-4 1.92.65-.35 2.65-.47 4Zm-21.08 2.24c-1.22-.31-3.07 2.6-4 4-1.54-3.43 4.79-6.09 5.83-9.87.79.39-.62 2.33-.9 3.14 1.61.35 4.27-3.8 2.69-6.72 4-2.91 4.34-9.42 12.11-8.52-.19-1-2.38 0-2.7-.9.55-1.4 1.95-2 2.25-3.59a4.45 4.45 0 0 0-2.82 1.94q-.63.84-1.2 1.65.57-.81 1.2-1.65C164 68 169.84 61.08 176.88 57.37c-1.78 2.17-4.62 5.36-7.18 8.07-2 2.11 4.86-5.07 5.82-5.82.72-.55 2-.48 2.26-1.35.42.07.32.33.12.41 7-1.55 13.52-7.3 22.29-8.48-1.84 1.28-4.38 1.89-6.72 2.69 1.78.87 4-1.65 6.72-1.35-9.88 7.61-18.64 16.33-27.8 24.67.63-7.15 6-9.52 9.87-13.46-9 1.64-12.92 8.31-17 14.8.26 1.09 1.7 1 2.69 1.35-3 1.07-8 .26-11.21 0 .16 2.83 4.15 1.82 6.28 2.68-4.39 10.56-8.23 21.68-14.35 30.5-.54-4.55-4.47-5.69-6.73-8.52a10.1 10.1 0 0 0 2.69.9c-.19-1.75-2.55-1.35-4-1.79a36.6 36.6 0 0 0 6.65-8.53Zm-56.51 20.63c-1.25 1.69-2.56 4.34-3.59 4.48-1.2.17 1.14-4.17 3.59-4.48m-2.7 7.17c1.21 4.49-.17 10.29-3.14 12.11-.76.16-.84-.35-.88-.9-3 2.4.07-.42-2.7-.89.14-1.51-.6-3.89 1.34-3.59.33 1.37-.45 1.63-.44 2.69 4.58-.49 3.73-6.45 5.82-9.42m-4 3.14c.21 1.42-.65 1.76-.91 2.69-1.11.08-1.39-.7-2.24-.9.06-1.58 1.47-1.8 3.13-1.79Zm-32.76-17.93h-3.59c-.6-3.21 4.37-3.67 3.59 0m-5.83-.45c-.14 2-2.46 1.72-4.49 1.8.44-1.5 3.22-2.5 4.49-1.8m-4.94 1.8c-1.43 1.25-3.23 3.5-5.38 2.68.45-2.07 3.11-3.89 5.38-2.68M17.7 129.12a1.28 1.28 0 0 1 .89 2.24c-.97-.07-.96-1.13-.89-2.24m.89 8.07c1.53 1.31.69 5 2.25 6.27-2.03-.81-2.18-3.46-2.25-6.27m5.41-5.83c-1.66-.77-1.64-4.15-.44-5.38 1.48.25.52 2 .3 3.73Zm19.74 10.31c2.27 1.76 6 2.06 9.41 2.69-1.07 6.62 3.22 9.7 7.62 9.42-.53-3.21-4.94-2.53-5.37-5.83 5.11-1.16 14 0 17.48-4 1.71 2.63 2.51 6.16 4 9-10.88 7.71-33.44 4.85-33.17-11.28Z"
          class="cls-2"/>
    <path fill="#f6f6f6"
          d="M114.55 110.29c.31.35 2.5 1 2.69 0-.26-.61-1.61-.12-1.77-.83a4.2 4.2 0 0 0-.92.83M185.71 198.5a42.4 42.4 0 0 0 14.93-16.91c1.31-2.75 3.46-5.82 2.69-8.53-5 10.8-10.29 23.72-22.87 26.9-4 1-10.22 1.49-15.24 1.8-2.88.17-7.24-1.57-9 1.35 9.05 1.41 15.85-2.46 25.11-2.25a31 31 0 0 0 4.06-2.17v-.07a3 3 0 0 0 .32-.12M185 133.6c-1.7 0-3.22 2.43-2.69 3.14.56-1.32 2.03-1.82 2.69-3.14"
          class="cls-2"/>
    <path fill="#f6f6f6"
          d="M215 162.3c-.46-2.7.29-4.19 1.8-4.93.4-2.21-1.89-1.71-1.8-3.59.67.23 1.14.66 1.8.89a45.4 45.4 0 0 0-5.8-15.24c-.47 1.27-1.39 1.82-1.34-.45-.83.07-.27 1.52-.9 1.8-1.72-1.42-2.37-3.91-4.93-4.48-1.29.74.22 4.8-.45 4.92-2.93.16-.58-2.18-1.79-3.59-.61.15-.37 1.13-.45 1.8-1.33-.9-1-3.52-3.14-3.59 3.4 10.39 10.55 21.55 6.28 35.43 3.64-4.84 2.69-14.16.89-20.18 4.49 7.56 2.53 20.48-1.79 28.25-3.85 6.95-10.2 16.36-17.62 19.16l-.29.19c.16.47.87.36.87-.07-.06 3.82-9.66 2-10.77 6.28-1.44.25-2.24-.14-2.67-.9-12.86 3.33-31.16 2.07-38.12-5.83 7.33-2.68 14.77-5.26 20.63-9.41 0 .89-1.23.57-.9 1.79 6.74-10.11 17.24-20 20.18-35.43 5.69-7.31 8.6-17.4 17.93-21.07 1.79-1.8 2.79-4.38 4.49-6.28 1.9 0-.12 4 1.79 4 4-.18 3-7.2.45-8.08-3.91.59-4.43 4.55-7.62 5.84.8-2.63 3.46-3.41 4-6.28-4-.67-3.25 3.22-6.28 3.58-2.35.29-3-1.82-5.38-2.68-3.84-1.41-8.06-1-11.66-1.35 4.84 2.2 12.41 1.65 15.25 5.83-.08 1.42-1.78 1.22-3.14 1.35-.86.63-.81 2.17-1.34 3.13-17.18 16.2-17.54 49.19-40.38 59.68-3.86-.87-8.09 2.05-12.11 3.59-3.88-2.61-8-2.19-12.1-4.48.2 3.55 7.53 4.2 11.2 4.48-2.8 3.41-7.08.1-12.1.9-.93 1.25 2.94 1.52 2.69 3.58-2.13-.33-3.08.51-4.93.45 2 3 5.66 1.11 9.42 1.8 2.54.45 4.21 2.76 6.72 3.58 6.17 2 17.34-.56 19.73 2.24h1.35c4.36-2.26 10.88.42 14.79-2.24 1 .15 1.93.46 2.24 1.34 7.76-1.95 18.34-1.09 23.32-5.82 1.09-.45 1-.15 2.69-.45-.17-2.44.85-5.1 3.59-5.83 2-.06-.4 1.15 0 2.24 2.61-.68 2.73-3.85 4.48-5.38 1-.14.5 1.3 1.34 1.35 6.71-7.73 13.07-17.93 11.67-32.29-1.18-1.17-.36.72-1.79.45m-10.31-12.56c-1-.06-1-1.12-.9-2.24h1.34c.19 1.08-.82.98-.45 2.24ZM185 133.6c-.61 1.32-2.08 1.82-2.69 3.14-.58-.74.94-3.17 2.69-3.14m-57 67.26c-.38-2.35 3-3.25 4.49-2.24a5.6 5.6 0 0 1-4.49 2.24m85.65-47.53c-1.53.33-.74-1.65-1.79-1.8.14-.6 1.12-.36 1.79-.44Zm-2.7-8.52c2.27.12 1.8 3 2.7 4.48-2.58.19-1.78-3-2.65-4.48Z"
          class="cls-2"/>
    <path fill="#f6f6f6"
          d="M185.4 198.62v.07l.29-.19a3 3 0 0 1-.29.12M222.61 112.08c-8.94 2.11-17.21 4.9-22 11.21 5.57-4.45 13-7 21.07-9 .77-.28.74-1.35 1.36-1.79h2.69c.66-1.27 1.81-2.08 1.79-4-3.29-.5-4.36 1.29-4.91 3.58M105.13 112.08c1.68-.72 4.59-.19 5.83-1.34-.72-1.57-5-1-5.83 0 .5.09.7.49.9.89-.63-.03-1.72.1-.9.45M215.89 117.46c2.71-1.33 7.46-.61 9.42-2.69-3.24.5-8.62 1.23-9.42 2.69M236.06 120.15c1.85.55 1.57 3.22 2.7 4.48-.07-2.04-1.24-5.31-2.7-4.48M165.67 182.92c1.62-3 5.3-6.34 5.38-9.41-2.17 2.49-4.77 6.89-5.38 9.41M150 194.14c4.83-.54 7.55-3.22 10.3-5.83-3.39.03-7.85 4.92-10.3 5.83"
          class="cls-2"/>
</svg>


















