<svg xmlns="http://www.w3.org/2000/svg" data-name="Слой 1" viewBox="0 0 123.5 78.11">
    <path d="M123.44 77.91c-2.56-1.27-5.2-2.44-7.66-3.9a43 43 0 0 1-6.88-5.08c-4.23-3.82-7.64-8.47-9.59-13.85-.82-2.25-1.32-4.56-1.7-6.9.39.54.81 1.06 1.25 1.56 1.63 1.82 3.6 3.34 5.7 4.56 2.56 1.49 5.36 2.52 8.2 3.33 1.53.44 3.09.81 4.65 1.12.76.15 1.53.3 2.29.44.39.07.78.14 1.17.17.4.03.67-.09 1.05-.21.09-.03.13-.15.06-.21-.19-.16-.38-.39-.59-.52-.24-.14-.61-.2-.87-.27-.71-.19-1.43-.34-2.14-.51-1.34-.33-2.68-.67-4-1.05-2.56-.73-5.04-1.65-7.41-2.87-2.15-1.11-4.17-2.46-5.9-4.15-1.68-1.65-2.96-3.61-4.07-5.68-.4-2.93-.87-5.85-1.94-8.62-1.2-3.12-3.1-5.62-5.77-7.62-1.36-1.02-2.85-2.16-4.48-2.7s-3.45-.25-5.1.06c-1.95.37-3.84 1.01-5.63 1.87-1.74.84-3.37 2.08-5.27 2.5-1.43.32-3.09.17-4.57-.18-.26-.16-.52-.33-.77-.52-.12-1.05-.44-2.07-.82-3.08-.3-.8-.63-1.63-.85-2.48.52-.23 1.1-.35 1.65-.42 1.6-.22 3.24-.23 4.85-.32 3.57-.19 7.25-.55 10.82-.19 1.61.16 3.21.58 4.66 1.31 1.48.75 2.85 1.7 4.21 2.65 2.84 1.98 5.59 4.09 8.22 6.33 2.27 1.94 4.57 3.96 7.29 5.26 2.01.96 7.26 2.6 7.25-1.25 0-1.44-.87-2.79-1.57-3.99-.68-1.18-1.44-2.32-2.26-3.41-3.4-4.51-7.76-8.21-12.7-10.93-5.12-2.82-10.64-4.46-16.42-5.26-3.25-.45-6.63-.84-9.64-2.23-1.16-.54-2.26-1.21-3.22-2.06 2.85.26 5.67 1.05 8.42 1.77 4.44 1.17 8.88 2.34 13.31 3.56 8.81 2.43 17.57 5.05 26.26 7.86 2.07.67 4.17 1.54 6.34 1.85.94.13 2.27.19 3.04-.48.76-.65.69-1.66.24-2.47-.87-1.55-2.75-2.48-4.36-3.05-1.89-.67-3.92-1-5.87-1.42-9.11-1.97-18.24-3.88-27.36-5.78-4.58-.95-9.15-1.9-13.73-2.82-2.12-.42-4.26-.8-6.37-1.27-.81-.18-1.63-.37-2.43-.59-.36-.42-.75-.82-1.17-1.19-1.25-1.08-2.69-1.86-4.15-2.62C55.66 1.2 54.15.42 52.52.13c-2.87-.5-5.7.63-7.61 2.8-1.91 2.16-2.7 4.97-2.67 7.85-.35.03-.7.05-1.01.04-.61 0-1.11-.1-1.45-.64-.64-1.01-.92-2.07-2.07-2.66-2.26-1.16-4.83.2-5.92 2.29-.54 1.03-.91 2.29-1.04 3.58-.03 0-.07.01-.1.02-.57.08-1.15.12-1.72.06-.44-.04-.9-.14-1.31-.29-.4-.15-1.11-.43-1.36-.77-.1-.13-.31-.02-.22.13.3.5.38.93.84 1.32q.66.57 1.47.87c.64.23 1.32.34 2 .39.13 0 .26.02.39.03.08.88.31 1.72.7 2.46.79 1.47 2.38 2.36 3.91 2.23.43 1.53.84 3.06.98 4.66.07.81.05 1.61 0 2.41-.16.07-.31.14-.46.23-2.07 1.12-3.04 3.24-3.82 5.35-.41 1.1-.79 2.22-1.31 3.27-.6 1.19-1.32 2.32-2.05 3.44-1.4 2.16-2.9 4.26-4.5 6.28a90 90 0 0 1-10.35 11.04A98 98 0 0 1 7.14 62c-2.3 1.73-4.71 3.28-7.03 4.97-.22.16-.03.46.21.36 4.7-2.08 8.99-5.26 12.93-8.53 4.01-3.32 7.69-7.02 10.99-11.04q2.43-2.955 4.59-6.12c1.5-2.19 3.02-4.44 3.95-6.94.77-2.06 1.31-4.67 3.28-5.96.05-.03.09-.06.14-.09-.07.88-.12 1.77-.09 2.66 0 .22.02.44.04.66-.12 0-.23-.02-.35-.03-.42-.05-.69.38-.73.73-1.39 11.23-5.88 22.28-13.57 30.68-1.05 1.15-2.16 2.23-3.3 3.29-.57.53-1.16 1.03-1.75 1.54-.65.56-1.2 1.17-1.82 1.75-.2.19.05.48.28.36.64-.33 1.27-.6 1.86-1.01.62-.44 1.21-.91 1.79-1.39 1.09-.9 2.12-1.86 3.11-2.88 2.03-2.1 3.86-4.39 5.49-6.81 3.26-4.84 5.69-10.22 7.34-15.81.81-2.75 1.42-5.56 1.85-8.39.17 1.4.38 2.79.55 4.17.11.91.09 1.99.65 2.76.37.51 1.26 1.03 1.77.43.11-.13.1-.33-.05-.42-.39-.24-.82-.28-1.01-.77-.17-.46-.17-.99-.22-1.47-.11-1.05-.22-2.11-.32-3.16-.07-.72-.15-1.44-.2-2.17 1.6-.22 3.2-.93 4.66-1.49 1.98-.76 3.94-1.59 5.63-2.88.75-.57 1.43-1.23 2.06-1.92.74-.27 1.44-.67 1.94-1.28.28-.34.48-.71.62-1.11 1.29.33 2.53.67 3.64 1.42-.03 1.25.04 2.51.19 3.75.14 1.23.35 2.46.69 3.65.32 1.14.8 2.22 1.23 3.32.46 1.17.74 2.32.81 3.58.07 1.21.11 2.44.34 3.63.46 2.39 1.51 4.6 2.78 6.64.04.06.14.02.12-.05-.75-2.24-1.79-4.46-1.97-6.85-.09-1.21.05-2.43 0-3.64-.04-1.2-.25-2.34-.63-3.47-.36-1.08-.79-2.12-1.07-3.23-.29-1.14-.46-2.3-.54-3.47-.05-.75-.07-1.5-.08-2.24.42.42.83.85 1.26 1.26l.06.06c.53.78 1.38 1.34 2.34 1.74.12.06.23.12.35.18 2.35 3.67 5.41 6.83 8.37 10.01.38.41.72.71.83 1.28.12.57.17 1.17.27 1.75.19 1.15.42 2.29.7 3.43.56 2.31 1.28 4.58 2.17 6.78.83 2.07 1.81 4.06 3.21 5.81 1.41 1.76 3.15 3.24 4.83 4.73 1.91 1.69 3.84 3.36 5.99 4.74 1.07.69 2.19 1.28 3.33 1.84.57.28 1.14.6 1.73.84.61.25 1.26.4 1.88.61.09.03.15-.09.09-.15-.76-.76-1.52-1.38-2.44-1.93-.99-.59-1.97-1.18-2.92-1.83-1.86-1.25-3.58-2.72-5.24-4.22-1.62-1.46-3.28-2.93-4.77-4.52-1.48-1.59-2.57-3.38-3.43-5.37-.9-2.09-1.63-4.26-2.22-6.45-.3-1.13-.56-2.26-.78-3.41-.21-1.08-.29-2.2-.53-3.27-.24-1.04-1.05-1.77-1.74-2.53-.76-.85-1.53-1.69-2.28-2.54-1.31-1.47-2.6-2.95-3.77-4.53 1.43.54 2.95.85 4.47 1 2.89.28 5.8-.1 8.62-.71 1.43-.31 2.86-.68 4.29-.98.67-.14 1.36-.34 2.05-.41.69-.08 1.1.29 1.62.7 2.07 1.63 3.84 3.45 5.23 5.69 1.27 2.05 2.28 4.26 3.4 6.4.09.18.19.36.29.54.42 3.45.8 6.9 1.89 10.22 1.8 5.48 5.15 10.59 9.31 14.57a37.9 37.9 0 0 0 7.95 5.84c2.85 1.57 5.8 2.83 9.05 3.24.11.01.15-.16.05-.2Zm-15.28-41.58c.06.04.17.28.05.16 0 0-.03-.01-.05-.02v.09c0-.03-.02-.06-.02-.09-.02-.13 0-.16.02-.14m-66.41-5.91c-1.35.53-2.84 1.22-4.33 1.46-.02-.85 0-1.71.1-2.56.05-.43.1-.86.14-1.29 1.82-.46 3.87-.11 5.71-.08 1.07.02 2.15-.04 3.21-.17-1.43 1.15-3.13 1.99-4.83 2.65Zm6.96-4.81c-.47.12-.96.18-1.39.25-1.45.22-2.92.3-4.38.27-1.67-.04-3.48-.09-5.15.29.05-1.06.04-2.12-.1-3.22-.17-1.32-.41-2.66-.72-3.97.15-.1.29-.22.43-.35 1.04-1.01 1.59-2.41 2.56-3.48.49-.54 1.04-.99 1.75-1.19.33-.1.63-.1.93-.06.48 2.1 1.35 4.1 2.51 5.75.83 1.18 1.81 2.21 2.98 3.04.59.42 1.21.74 1.87 1-.42.57-.84 1.14-1.29 1.68Zm40.45 5.99c-.9-.81-1.88-1.89-2.99-2.42-1.21-.58-2.74-.15-3.98.11-2.81.59-5.58 1.39-8.45 1.63-1.02.09-2.07.11-3.11.06 1.51-.66 2.84-1.65 4.32-2.39 1.59-.8 3.28-1.38 5.02-1.75 1.77-.38 3.6-.65 5.26.23 1.56.83 3.12 1.9 4.45 3.08 1.25 1.11 2.21 2.46 2.98 3.95.72 1.41 1.22 2.9 1.59 4.43-1.36-2.53-2.89-4.94-5.09-6.93"
          style="fill:#e5e7eb"/>
</svg>
